HIERARCHY
ROOT Hips
{
	OFFSET 0.000000 83.214638 0.000000
	CHANNELS 6 Xposition Yposition Zposition Xrotation Yrotation Zrotation
	JOINT Pelvis
	{
		OFFSET 0.000000 0.000000 0.000000
		CHANNELS 3 Xrotation Yrotation Zrotation
		JOINT LeftUpLeg
		{
			OFFSET 8.479700 -4.795502 -0.379100
			CHANNELS 3 Xrotation Yrotation Zrotation
			JOINT LeftLeg
			{
				OFFSET 0.024144 -32.555107 0.112900
				CHANNELS 3 Xrotation Yrotation Zrotation
				JOINT LeftFoot
				{
					OFFSET -0.024144 -32.638630 -3.012600
					CHANNELS 3 Xrotation Yrotation Zrotation
					JOINT LeftToeBase
					{
						OFFSET 0.970200 -13.225400 11.864200
						CHANNELS 3 Xrotation Yrotation Zrotation
						End Site
						{
							OFFSET 0.000000 12.319262 0.000000
						}
					}
					JOINT LFootTongue
					{
						OFFSET 1.142400 -1.059800 6.665200
						CHANNELS 3 Xrotation Yrotation Zrotation
						End Site
						{
							OFFSET 0.000000 12.319262 0.000000
						}
					}
				}
				JOINT LeftPantLeg
				{
					OFFSET 0.918482 -16.533964 -2.284700
					CHANNELS 3 Xrotation Yrotation Zrotation
					End Site
					{
						OFFSET 0.350399 24.744368 0.000000
					}
				}
			}
		}
		JOINT RightUpLeg
		{
			OFFSET -8.479700 -4.795502 -0.379100
			CHANNELS 3 Xrotation Yrotation Zrotation
			JOINT RightLeg
			{
				OFFSET -0.023144 -32.555092 0.112900
				CHANNELS 3 Xrotation Yrotation Zrotation
				JOINT RightFoot
				{
					OFFSET 0.023144 -32.638641 -3.012700
					CHANNELS 3 Xrotation Yrotation Zrotation
					JOINT RightToeBase
					{
						OFFSET -0.970200 -13.225400 11.864200
						CHANNELS 3 Xrotation Yrotation Zrotation
						End Site
						{
							OFFSET 0.000000 12.319244 0.000000
						}
					}
					JOINT RFootTongue
					{
						OFFSET -1.142200 -1.059800 6.665200
						CHANNELS 3 Xrotation Yrotation Zrotation
						End Site
						{
							OFFSET 0.000000 12.319243 0.000000
						}
					}
				}
				JOINT RightPantLeg
				{
					OFFSET -0.919482 -16.533978 -2.284800
					CHANNELS 3 Xrotation Yrotation Zrotation
					End Site
					{
						OFFSET -0.350400 24.744419 0.000000
					}
				}
			}
		}
	}
	JOINT Spine
	{
		OFFSET 0.000000 7.722000 1.166200
		CHANNELS 3 Xrotation Yrotation Zrotation
		JOINT Spine1
		{
			OFFSET 0.000000 12.024101 0.248800
			CHANNELS 3 Xrotation Yrotation Zrotation
			JOINT Spine2
			{
				OFFSET 0.000000 11.502998 -0.491200
				CHANNELS 3 Xrotation Yrotation Zrotation
				JOINT Neck
				{
					OFFSET 0.000000 18.430702 -3.123100
					CHANNELS 3 Xrotation Yrotation Zrotation
					JOINT Head
					{
						OFFSET 0.000000 9.051102 1.034000
						CHANNELS 3 Xrotation Yrotation Zrotation
						JOINT HairB
						{
							OFFSET 0.208400 24.786102 24.822300
							CHANNELS 3 Xrotation Yrotation Zrotation
							End Site
							{
								OFFSET 0.000000 32.263779 0.000000
							}
						}
						JOINT HairA
						{
							OFFSET -7.081100 24.428299 23.196600
							CHANNELS 3 Xrotation Yrotation Zrotation
							End Site
							{
								OFFSET 0.000000 32.263779 0.000000
							}
						}
						JOINT Hat
						{
							OFFSET 16.728800 15.048294 -15.439601
							CHANNELS 3 Xrotation Yrotation Zrotation
							End Site
							{
								OFFSET 0.000000 32.263779 0.000000
							}
						}
					}
				}
				JOINT LeftShoulder
				{
					OFFSET 6.197800 13.665199 -4.064700
					CHANNELS 3 Xrotation Yrotation Zrotation
					JOINT LeftArm
					{
						OFFSET 7.778100 -0.187103 -1.709300
						CHANNELS 3 Xrotation Yrotation Zrotation
						JOINT LeftForeArm
						{
							OFFSET 22.049376 0.000000 0.000000
							CHANNELS 3 Xrotation Yrotation Zrotation
							JOINT LeftHand
							{
								OFFSET 23.009392 0.000000 0.000000
								CHANNELS 3 Xrotation Yrotation Zrotation
								JOINT LeftHandThumb1
								{
									OFFSET 3.507191 -2.063065 3.133727
									CHANNELS 3 Xrotation Yrotation Zrotation
									JOINT LeftHandThumb2
									{
										OFFSET 3.101337 -1.790558 1.790558
										CHANNELS 3 Xrotation Yrotation Zrotation
										JOINT LeftHandThumb3
										{
											OFFSET 3.058640 -1.765907 1.765906
											CHANNELS 3 Xrotation Yrotation Zrotation
											End Site
											{
												OFFSET -0.415260 3.926476 -0.049563
											}
										}
									}
								}
								JOINT LeftHandIndex1
								{
									OFFSET 11.334419 -0.901459 3.706815
									CHANNELS 3 Xrotation Yrotation Zrotation
									JOINT LeftHandIndex2
									{
										OFFSET 3.283112 0.000000 0.000000
										CHANNELS 3 Xrotation Yrotation Zrotation
										JOINT LeftHandIndex3
										{
											OFFSET 3.323853 0.000000 0.000000
											CHANNELS 3 Xrotation Yrotation Zrotation
											End Site
											{
												OFFSET -1.135597 3.097809 0.402452
											}
										}
									}
								}
								JOINT LeftHandMiddle1
								{
									OFFSET 11.335861 0.000000 0.000000
									CHANNELS 3 Xrotation Yrotation Zrotation
									JOINT LeftHandMiddle2
									{
										OFFSET 3.410492 0.000000 0.000000
										CHANNELS 3 Xrotation Yrotation Zrotation
										JOINT LeftHandMiddle3
										{
											OFFSET 3.312172 0.000000 0.000000
											CHANNELS 3 Xrotation Yrotation Zrotation
											End Site
											{
												OFFSET -1.150200 3.080154 0.400270
											}
										}
									}
								}
								JOINT LeftHandRing1
								{
									OFFSET 11.514786 -0.013176 -3.003090
									CHANNELS 3 Xrotation Yrotation Zrotation
									JOINT LeftHandRing2
									{
										OFFSET 3.053307 0.000000 0.000000
										CHANNELS 3 Xrotation Yrotation Zrotation
										JOINT LeftHandRing3
										{
											OFFSET 3.295807 0.000000 0.000000
											CHANNELS 3 Xrotation Yrotation Zrotation
											End Site
											{
												OFFSET -1.281006 3.013344 0.375733
											}
										}
									}
								}
								JOINT LeftHandPinky1
								{
									OFFSET 10.518692 -0.960396 -5.730441
									CHANNELS 3 Xrotation Yrotation Zrotation
									JOINT LeftHandPinky2
									{
										OFFSET 2.861649 0.000000 0.000000
										CHANNELS 3 Xrotation Yrotation Zrotation
										JOINT LeftHandPinky3
										{
											OFFSET 2.863380 0.000000 0.000000
											CHANNELS 3 Xrotation Yrotation Zrotation
											End Site
											{
												OFFSET -0.843597 2.711159 0.369971
											}
										}
									}
								}
							}
							JOINT LSleeve
							{
								OFFSET 6.676277 -0.344902 -1.011730
								CHANNELS 3 Xrotation Yrotation Zrotation
								End Site
								{
									OFFSET 0.000000 14.885353 0.000000
								}
							}
						}
					}
				}
				JOINT RightShoulder
				{
					OFFSET -6.197800 13.665199 -4.064700
					CHANNELS 3 Xrotation Yrotation Zrotation
					JOINT RightArm
					{
						OFFSET -7.778100 -0.187103 -1.709300
						CHANNELS 3 Xrotation Yrotation Zrotation
						JOINT RightForeArm
						{
							OFFSET -22.049376 0.000000 0.000000
							CHANNELS 3 Xrotation Yrotation Zrotation
							JOINT RightHand
							{
								OFFSET -23.009392 0.000000 0.000000
								CHANNELS 3 Xrotation Yrotation Zrotation
								JOINT RightHandThumb1
								{
									OFFSET -3.507191 -2.063065 3.133727
									CHANNELS 3 Xrotation Yrotation Zrotation
									JOINT RightHandThumb2
									{
										OFFSET -3.101337 -1.790558 1.790558
										CHANNELS 3 Xrotation Yrotation Zrotation
										JOINT RightHandThumb3
										{
											OFFSET -3.058640 -1.765907 1.765906
											CHANNELS 3 Xrotation Yrotation Zrotation
											End Site
											{
												OFFSET 0.415260 3.926476 -0.049563
											}
										}
									}
								}
								JOINT RightHandIndex1
								{
									OFFSET -11.334419 -0.901459 3.706815
									CHANNELS 3 Xrotation Yrotation Zrotation
									JOINT RightHandIndex2
									{
										OFFSET -3.283112 0.000000 0.000000
										CHANNELS 3 Xrotation Yrotation Zrotation
										JOINT RightHandIndex3
										{
											OFFSET -3.323853 0.000000 0.000000
											CHANNELS 3 Xrotation Yrotation Zrotation
											End Site
											{
												OFFSET 1.135597 3.097809 0.402452
											}
										}
									}
								}
								JOINT RightHandMiddle1
								{
									OFFSET -11.335861 0.000000 0.000000
									CHANNELS 3 Xrotation Yrotation Zrotation
									JOINT RightHandMiddle2
									{
										OFFSET -3.410492 0.000000 0.000000
										CHANNELS 3 Xrotation Yrotation Zrotation
										JOINT RightHandMiddle3
										{
											OFFSET -3.312172 0.000000 0.000000
											CHANNELS 3 Xrotation Yrotation Zrotation
											End Site
											{
												OFFSET 1.150200 3.080154 0.400270
											}
										}
									}
								}
								JOINT RightHandRing1
								{
									OFFSET -11.514786 -0.013176 -3.003090
									CHANNELS 3 Xrotation Yrotation Zrotation
									JOINT RightHandRing2
									{
										OFFSET -3.053307 0.000000 0.000000
										CHANNELS 3 Xrotation Yrotation Zrotation
										JOINT RightHandRing3
										{
											OFFSET -3.295807 0.000000 0.000000
											CHANNELS 3 Xrotation Yrotation Zrotation
											End Site
											{
												OFFSET 1.281006 3.013344 0.375733
											}
										}
									}
								}
								JOINT RightHandPinky1
								{
									OFFSET -10.518692 -0.960396 -5.730441
									CHANNELS 3 Xrotation Yrotation Zrotation
									JOINT RightHandPinky2
									{
										OFFSET -2.861649 0.000000 0.000000
										CHANNELS 3 Xrotation Yrotation Zrotation
										JOINT RightHandPinky3
										{
											OFFSET -2.863380 0.000000 0.000000
											CHANNELS 3 Xrotation Yrotation Zrotation
											End Site
											{
												OFFSET 0.843597 2.711159 0.369971
											}
										}
									}
								}
							}
							JOINT RSleeve
							{
								OFFSET -6.676277 -0.344902 -1.011730
								CHANNELS 3 Xrotation Yrotation Zrotation
								End Site
								{
									OFFSET 0.000000 14.885353 0.000000
								}
							}
						}
					}
				}
				JOINT Backpack
				{
					OFFSET 0.000000 -2.471497 36.677502
					CHANNELS 3 Xrotation Yrotation Zrotation
					End Site
					{
						OFFSET 0.000000 20.427315 0.000000
					}
				}
				JOINT Hood
				{
					OFFSET 0.000000 18.754097 -10.431000
					CHANNELS 3 Xrotation Yrotation Zrotation
					JOINT Hood1
					{
						OFFSET 0.000000 -5.011002 -7.685901
						CHANNELS 3 Xrotation Yrotation Zrotation
						End Site
						{
							OFFSET 0.000000 9.175140 0.000000
						}
					}
				}
				JOINT LHoodieString
				{
					OFFSET 5.250500 16.397697 3.089900
					CHANNELS 3 Xrotation Yrotation Zrotation
					JOINT LHoodieString1
					{
						OFFSET 0.257700 -6.364304 3.694600
						CHANNELS 3 Xrotation Yrotation Zrotation
						JOINT LHoodieString2
						{
							OFFSET 0.000000 -9.643799 2.679100
							CHANNELS 3 Xrotation Yrotation Zrotation
							End Site
							{
								OFFSET 0.000000 10.009018 0.000000
							}
						}
					}
				}
				JOINT RHoodieString
				{
					OFFSET -5.250500 16.397697 3.089900
					CHANNELS 3 Xrotation Yrotation Zrotation
					JOINT RHoodieString1
					{
						OFFSET -0.257700 -6.364304 3.694600
						CHANNELS 3 Xrotation Yrotation Zrotation
						JOINT RHoodieString2
						{
							OFFSET 0.000000 -9.643799 2.679100
							CHANNELS 3 Xrotation Yrotation Zrotation
							End Site
							{
								OFFSET 0.000000 10.009018 0.000000
							}
						}
					}
				}
			}
			JOINT LBackpack_Strap
			{
				OFFSET 15.223200 -7.719803 -6.610900
				CHANNELS 3 Xrotation Yrotation Zrotation
				End Site
				{
					OFFSET 0.000000 16.040596 0.000000
				}
			}
			JOINT RBackpack_Strap
			{
				OFFSET -15.223000 -7.719803 -6.610900
				CHANNELS 3 Xrotation Yrotation Zrotation
				End Site
				{
					OFFSET 0.000000 16.040596 0.000000
				}
			}
		}
	}
	JOINT BoyFacialAnim_Joint
	{
		OFFSET 1.000000 -82.208099 -1.550900
		CHANNELS 3 Xrotation Yrotation Zrotation
		End Site
		{
			OFFSET 0.000000 30.012791 0.000000
		}
	}
}
MOTION
Frames: 4
Frame Time: 0.033333
-8.567706 68.213554 -51.584259 -353.331587 39.923549 7.236314 -0.000000 -0.000004 0.000000 -61.636344 11.288622 -3.340314 61.617541 -5.587450 -6.604028 -19.837811 0.791404 -3.709869 0.000001 -0.000001 -0.000001 0.000001 -0.000001 -0.000001 -0.000000 -0.000000 0.000000 6.592192 -20.916689 -3.350570 46.156660 -10.866921 3.081047 -32.911915 -7.686877 8.850355 -0.000002 0.000000 0.000000 -0.000002 0.000000 0.000000 -0.000001 -0.000000 -0.000001 1.785533 2.191363 -0.016816 3.584575 4.559012 -0.250817 3.584572 4.558992 -0.250812 5.891248 -1.765398 2.587915 -30.835715 -12.552168 10.632898 -0.000000 0.000002 0.000002 -0.000000 0.000002 0.000002 -0.000000 0.000002 0.000002 -0.139099 -2.562734 7.025512 18.165756 -1.963339 -58.525521 5.025590 -129.909051 2.585304 28.999504 19.691567 17.812083 4.732082 -5.088850 17.307826 7.116515 14.696655 -16.356071 0.000000 -0.000001 -0.000001 -3.353257 -1.770049 -36.005397 -4.452835 -1.744784 -56.328153 0.000003 -0.000001 -0.000002 -3.377095 -1.002172 -42.414809 -4.083106 -2.839583 -49.222738 0.000002 0.000002 -0.000005 -0.806651 3.323290 -51.621699 -0.254296 -4.479665 -54.090232 0.000000 0.000002 -0.000002 1.255669 5.861102 -49.551547 0.712269 -7.842497 -66.668930 -0.000001 0.000003 0.000004 -0.000000 -0.000001 -0.000001 2.566308 12.931531 -5.539453 -47.147631 14.277881 0.356792 -27.446941 32.773987 17.062781 -66.786997 4.984856 21.476736 7.921145 16.048528 2.151054 26.698376 -25.605350 52.045908 -0.000000 0.000000 0.000000 -3.364520 2.301757 115.125625 -7.612760 -2.681111 100.521649 -0.000001 0.000000 0.000002 -8.306566 -1.920673 108.944249 -8.141310 -1.065743 99.356590 0.000000 -0.000003 -0.000003 -9.930628 -5.147987 113.519055 -3.482936 8.847981 90.030595 -0.000002 -0.000003 0.000003 -15.477989 -4.352200 114.744828 -3.658333 14.803282 96.145677 -0.000000 -0.000001 -0.000003 0.000000 0.000001 -0.000002 0.000000 0.000002 -0.000000 0.000000 0.000002 -0.000000 0.000000 0.000002 -0.000000 0.000000 0.000002 -0.000000 0.000000 0.000002 -0.000001 0.000000 0.000002 -0.000002 0.000000 0.000002 -0.000000 0.000000 0.000002 -0.000001 0.000000 0.000002 -0.000002 0.000001 0.000000 0.000001 0.000001 0.000000 0.000001 -0.000000 -0.000004 0.000000 
-7.434625 68.039764 -45.073479 -353.148975 45.885221 7.440947 -0.000000 0.000003 -0.000002 -61.306473 11.341036 -12.317740 49.474858 -6.937588 -7.319928 -18.388713 -1.742410 -8.803737 -0.000000 -0.000001 -0.000002 -0.000000 -0.000001 -0.000002 -0.000000 0.000002 -0.000001 16.041565 -20.234574 3.818159 34.920520 -12.995521 4.183805 -23.166412 -11.083747 6.415876 0.000003 0.000000 0.000000 0.000003 0.000000 0.000000 0.000004 -0.000000 0.000000 1.200289 3.742227 -0.408193 2.459506 8.217928 -1.098531 2.459508 8.217937 -1.098531 4.110027 -2.982160 2.572606 -34.133911 -16.620903 10.256005 -0.000001 0.000001 0.000001 -0.000001 0.000001 0.000001 -0.000001 0.000001 0.000001 -0.325027 0.591284 7.783153 29.134384 -10.222098 -63.552984 5.182415 -125.701149 2.504812 33.006363 7.933756 21.124027 6.926754 -4.010203 15.160995 9.662557 25.246584 -24.713752 0.000000 0.000002 -0.000001 -6.807128 -1.185892 -65.422079 -9.875095 -0.596333 -98.816172 -0.000004 0.000002 -0.000002 -6.789694 -0.841720 -70.838474 -8.633025 -2.334912 -86.904602 0.000002 -0.000003 -0.000000 -3.672427 1.098165 -78.342666 -1.752701 -6.268891 -87.493009 0.000001 -0.000003 0.000001 -3.142208 1.453194 -76.006400 0.497471 -9.715140 -95.626029 0.000003 -0.000002 -0.000000 -0.000001 -0.000001 0.000001 3.682899 12.094316 -13.453512 -66.010698 17.638492 3.915494 -21.808956 39.170448 16.064041 -46.047168 6.026551 15.999243 17.154423 21.601097 -9.893692 27.563274 -19.566127 63.068013 -0.000001 0.000001 -0.000002 -2.996977 2.572826 110.069755 -7.221609 -2.359997 95.375034 -0.000000 0.000002 0.000002 -7.902179 -1.660220 104.390111 -7.803170 -0.767098 94.932963 0.000001 -0.000001 -0.000000 -9.576755 -4.980039 108.954153 -3.169229 8.710522 86.541680 -0.000001 -0.000001 0.000000 -14.327509 -4.227354 109.940166 -3.621711 14.642015 96.727206 -0.000001 0.000001 0.000000 -0.000000 0.000003 -0.000001 -0.000000 -0.000002 0.000000 -0.000000 -0.000002 0.000000 -0.000000 -0.000002 0.000000 -0.000000 -0.000002 0.000000 -0.000000 -0.000002 0.000000 -0.000000 -0.000002 0.000000 -0.000000 -0.000002 0.000000 -0.000000 -0.000002 0.000000 -0.000000 -0.000002 0.000000 0.000000 -0.000002 -0.000000 0.000000 -0.000002 -0.000000 -0.000000 0.000003 -0.000002 
-6.096541 67.596420 -38.190407 -349.992799 47.791390 5.989157 -0.000000 -0.000001 0.000001 -62.064420 9.931153 -17.411670 39.832109 -12.852349 -7.612947 -18.626129 -5.243282 -12.212833 -0.000004 0.000001 -0.000000 -0.000004 0.000001 -0.000000 -0.000002 0.000001 0.000001 20.863496 -17.675293 7.530398 25.151494 -13.620908 5.071590 -9.420323 -14.963951 4.252111 -0.000001 0.000000 0.000001 -0.000001 0.000000 0.000001 0.000001 -0.000000 0.000001 0.630353 5.616752 -1.084336 1.435899 12.430273 -2.535576 1.435895 12.430259 -2.535573 1.280386 -4.895614 3.558719 -40.662083 -20.678514 5.540117 0.000000 -0.000003 -0.000001 0.000000 -0.000003 -0.000001 0.000000 -0.000003 -0.000001 -0.641230 5.836645 8.396042 34.854916 -7.673639 -66.277601 6.263926 -122.106079 2.901939 25.526157 -2.999242 17.891742 8.306144 -3.508168 14.024019 12.679784 30.909434 -30.601406 0.000001 0.000000 -0.000000 -8.448141 -0.206327 -82.227418 -12.139400 1.692095 -123.022977 -0.000005 -0.000001 -0.000004 -8.572602 -0.009452 -87.076442 -10.852585 -0.701320 -109.274639 0.000005 0.000000 0.000000 -5.777118 0.782335 -93.481118 -3.139574 -6.848525 -108.814271 -0.000004 -0.000002 -0.000001 -6.692764 0.815593 -91.292752 -0.082347 -10.713760 -113.292512 -0.000001 0.000000 -0.000000 0.000001 0.000001 -0.000002 4.541656 10.372557 -19.658381 -81.307972 22.461536 12.435425 -18.984820 52.784334 16.436164 -27.836255 13.882622 17.854278 21.981581 23.279764 -15.613884 28.838179 -17.018243 68.525294 0.000001 0.000002 -0.000002 -2.912983 2.757475 108.385690 -7.252659 -2.388982 96.244865 0.000001 0.000000 0.000004 -7.728568 -1.589436 103.028745 -7.839722 -0.817279 95.916101 0.000001 -0.000001 -0.000004 -9.582414 -4.989562 107.932234 -3.290767 8.749193 87.623725 0.000001 0.000003 0.000003 -14.161656 -4.377338 108.844754 -3.854035 14.684072 99.528506 0.000001 -0.000002 -0.000005 0.000000 -0.000000 0.000000 0.000000 -0.000000 0.000001 0.000000 -0.000000 0.000001 0.000000 -0.000000 0.000001 0.000000 -0.000000 0.000001 0.000000 -0.000000 -0.000000 -0.000000 -0.000000 -0.000000 0.000000 -0.000000 0.000001 0.000000 -0.000000 -0.000000 -0.000000 -0.000000 -0.000000 -0.000000 0.000001 0.000001 -0.000000 0.000001 0.000001 -0.000000 -0.000001 0.000001 
-4.837156 67.054916 -30.905169 -346.372225 45.040217 4.080058 -0.000001 0.000000 0.000001 -66.310209 8.786588 -17.556062 41.891466 -17.129479 -7.253726 -18.616065 -10.496652 -7.112986 0.000000 0.000000 0.000000 0.000000 0.000000 0.000000 -0.000001 0.000000 0.000000 23.738485 -14.614395 8.379507 16.137379 -12.301251 4.628991 9.564269 -17.539543 4.051233 -0.000000 0.000001 0.000001 -0.000000 0.000001 0.000001 -0.000003 -0.000001 -0.000000 0.200647 7.546770 -1.881023 0.738668 16.423692 -4.095838 0.738665 16.423688 -4.095842 -1.044242 -7.000844 4.927524 -46.658429 -25.849430 1.309206 0.000000 0.000000 -0.000001 0.000000 0.000000 -0.000001 0.000000 0.000000 -0.000001 -0.946602 11.392187 8.426047 37.247713 5.023963 -70.649462 7.378677 -121.757151 2.979602 7.197255 -1.916274 6.959015 8.380836 -3.651064 14.322320 12.436180 30.315538 -30.304972 0.000000 -0.000001 0.000001 -8.310457 -0.313178 -80.672683 -11.972715 1.442384 -120.785243 -0.000005 0.000001 -0.000003 -8.418303 -0.107340 -85.574470 -10.674507 -0.888968 -107.190858 -0.000000 -0.000003 -0.000002 -5.590032 0.781038 -92.229233 -2.998949 -6.815865 -106.778956 -0.000001 0.000000 -0.000002 -6.345319 0.806079 -89.788007 -0.008393 -10.616907 -111.505263 0.000000 0.000001 -0.000000 0.000004 -0.000000 0.000000 4.788331 7.282461 -22.479647 -98.711185 33.183545 30.225605 -24.860159 63.055070 22.394537 -26.169694 17.854128 25.271953 23.250290 23.678085 -16.948204 29.584408 -16.575814 70.232479 -0.000001 -0.000000 -0.000002 -2.689511 2.736840 106.977169 -7.396246 -2.518345 98.190137 -0.000002 -0.000000 0.000005 -7.625582 -1.528670 101.808095 -7.986815 -0.957390 97.895633 0.000001 0.000000 -0.000000 -9.677202 -4.892084 107.316424 -3.451187 8.818937 89.350397 -0.000000 -0.000000 -0.000001 -14.302550 -4.228004 108.329963 -4.024653 14.751991 101.445870 0.000001 0.000000 0.000000 -0.000001 -0.000003 -0.000002 0.000000 -0.000000 0.000000 0.000000 -0.000000 0.000000 0.000000 -0.000000 0.000000 0.000000 -0.000000 0.000000 0.000000 -0.000000 -0.000000 0.000000 0.000000 -0.000000 0.000000 -0.000000 0.000000 0.000000 -0.000000 -0.000000 0.000000 0.000000 -0.000000 -0.000000 -0.000001 0.000001 -0.000000 -0.000001 0.000001 -0.000001 0.000000 0.000001 
